<svg xmlns="http://www.w3.org/2000/svg" width="20" height="18.87" viewBox="0 0 20 18.87"><g transform="translate(0 -14.468)"><path d="M19.518,22.3a2.069,2.069,0,0,0-.878-.331,4.005,4.005,0,0,0-.566-.043,5.283,5.283,0,0,0,.429-.592A1.446,1.446,0,1,0,16,19.883a5.27,5.27,0,0,0-.3.668,4.008,4.008,0,0,0-.321-.469,1.364,1.364,0,0,0-1.735-.568,1.107,1.107,0,0,0-.451.515,2.076,2.076,0,0,0-.026,1.365,7.526,7.526,0,0,0,.225.742,3.1,3.1,0,0,0-.288.159c-.019-.057-.038-.115-.059-.172a4.815,4.815,0,0,0-1.162-1.781l.006,0a6.035,6.035,0,0,0,1.753-1.251c.008-.008.138-.143.169-.177a6.059,6.059,0,0,0,.732-.976l.024-.04h0a3.461,3.461,0,0,0,.361-.823.861.861,0,0,0-.082-.8,1,1,0,0,0-.92-.217,8.623,8.623,0,0,0-2.715.961,8.467,8.467,0,0,0,.126-1.3c.009-.744-.108-1.118-.378-1.212s-.617.041-1.066.411a6.7,6.7,0,0,0-1.129,1.244.293.293,0,0,0,.476.341,4.4,4.4,0,0,1,1.468-1.421,6.5,6.5,0,0,1-.172,2.331A5.78,5.78,0,0,0,8.72,19.062a3.4,3.4,0,0,0-.572.058,4.547,4.547,0,0,1,.429-1.5.293.293,0,1,0-.532-.246,4.934,4.934,0,0,0-.494,1.911,3.407,3.407,0,0,0-2.17,2.866,3.371,3.371,0,0,0,.344,1.836A6.136,6.136,0,0,0,1.8,28.207,1.419,1.419,0,1,0,2,30.867a4.215,4.215,0,0,0,.975,1.517,3.2,3.2,0,0,0,2.232.954H11.81a.637.637,0,0,0,.636-.636v-.453a1.936,1.936,0,0,0-.145-.737L16.249,27.8a.293.293,0,0,0-.4-.427L11.99,31a1.948,1.948,0,0,0-1.106-.659l.235-1,.134.02c1.083.149,1.745-.423,1.839-1.065a1,1,0,0,0-.895-1.14,4.534,4.534,0,0,1-.537-.117l.372-1.578a2.267,2.267,0,0,0,1.142-1.27,2.63,2.63,0,0,0,.076-1.291A2.525,2.525,0,0,1,16.938,26.2a2.494,2.494,0,0,1-.162.247.293.293,0,0,0,.47.35,3.113,3.113,0,0,0,.608-2.081,7.606,7.606,0,0,0,.756-.176,2.077,2.077,0,0,0,1.169-.705,1.106,1.106,0,0,0,.22-.648A1.057,1.057,0,0,0,19.518,22.3ZM11.4,19.912l-.019.008q-.079-.057-.159-.11a.08.08,0,0,1-.029-.1,3,3,0,0,1,2.576-1.665A5.7,5.7,0,0,1,11.4,19.912ZM1.419,30.4a.833.833,0,1,1,.3-1.611A4.734,4.734,0,0,0,1.78,30.1c.013.067.027.132.043.2A.831.831,0,0,1,1.419,30.4Zm8.873-.1h-.5a2.522,2.522,0,0,0-.085-1.262q.451.117.837.2L10.292,30.3Zm.814-3.459a3.958,3.958,0,0,1-1.3-.921l0,0a6.171,6.171,0,0,0,1.565-.2l-.264,1.123Zm1.517-2.847a1.724,1.724,0,0,1-.944.991.3.3,0,0,0-.044.02,5.333,5.333,0,0,1-2.29.324,2.836,2.836,0,0,1-.215-.392.293.293,0,0,0-.543.22,4.543,4.543,0,0,0,3.2,2.518c.061.014.2.042.322.061a.412.412,0,0,1,.4.476c-.069.471-.646.642-1.18.569a15.991,15.991,0,0,1-2-.451A2.5,2.5,0,0,0,6.009,27.7a.293.293,0,1,0,.309.5,1.919,1.919,0,0,1,2.813,2.292.293.293,0,0,0,.275.394H10.5a1.363,1.363,0,0,1,1.361,1.361V32.7a.05.05,0,0,1-.05.05H5.2c-1.775,0-3.126-1.949-2.906-4.012a.292.292,0,0,0,.02-.156c.3-2.018,2.1-3.45,3.933-4.177a.293.293,0,0,0,.139-.429,2.82,2.82,0,0,1,2.379-4.329l.109,0a.292.292,0,0,0,.271-.157,5.008,5.008,0,0,1,1.869-1.7,9.786,9.786,0,0,1,2.5-1.071,1.728,1.728,0,0,1,.88-.075,1.2,1.2,0,0,1-.147.587c-.031.069-.065.14-.1.212a3.654,3.654,0,0,0-3.472,1.987.664.664,0,0,0,.226.866c.087.057.173.119.255.183a4.2,4.2,0,0,1,1.486,2.323.292.292,0,0,0,.017.076,2.135,2.135,0,0,1-.032,1.113Zm6.682-.508a1.541,1.541,0,0,1-.858.487,7.022,7.022,0,0,1-.691.161,3.106,3.106,0,0,0-3.816-2.2,6.932,6.932,0,0,1-.206-.678,1.54,1.54,0,0,1-.007-.987.533.533,0,0,1,.211-.246.482.482,0,0,1,.47,0,1.478,1.478,0,0,1,.511.427,3.477,3.477,0,0,1,.407.65.44.44,0,0,0,.812-.044,6.206,6.206,0,0,1,.366-.877A.861.861,0,1,1,18,21.036a6.239,6.239,0,0,1-.576.756.44.44,0,0,0,.368.725,3.457,3.457,0,0,1,.767.027,1.478,1.478,0,0,1,.625.229.483.483,0,0,1,.235.407A.532.532,0,0,1,19.306,23.486Z"/><path d="M253.787,191.91a.293.293,0,0,0-.382.16l-.117.287a.293.293,0,1,0,.542.222l.117-.287A.293.293,0,0,0,253.787,191.91Z" transform="translate(-243.373 -170.49)"/></g></svg>