<svg width="16" height="16" viewBox="0 0 16 16" fill="none" xmlns="http://www.w3.org/2000/svg">
<path d="M2.55556 16C2.12778 16 1.76157 15.8433 1.45694 15.53C1.15231 15.2167 1 14.84 1 14.4V3.2C1 2.76 1.15231 2.38333 1.45694 2.07C1.76157 1.75667 2.12778 1.6 2.55556 1.6H3.33333V0H4.88889V1.6H11.1111V0H12.6667V1.6H13.4444C13.8722 1.6 14.2384 1.75667 14.5431 2.07C14.8477 2.38333 15 2.76 15 3.2V14.4C15 14.84 14.8477 15.2167 14.5431 15.53C14.2384 15.8433 13.8722 16 13.4444 16H2.55556ZM2.55556 14.4H13.4444V6.4H2.55556V14.4ZM2.55556 4.8H13.4444V3.2H2.55556V4.8Z" fill="#0F172A"/>
</svg>
