<svg xmlns="http://www.w3.org/2000/svg" width="20" height="20" viewBox="0 0 20 20"><g transform="translate(-280 -224)"><g transform="translate(280 224)" fill="none" stroke="#000" stroke-linecap="round" stroke-linejoin="round" stroke-width="2"><rect width="20" height="20" rx="2" stroke="none"/><rect x="1" y="1" width="18" height="18" rx="1" fill="none"/></g><path d="M5.182,10.469a.882.882,0,0,1-.666-.316l-4-4.589a1.2,1.2,0,0,1,0-1.529.859.859,0,0,1,1.332,0l3.33,3.823,6-6.881a.859.859,0,0,1,1.333,0,1.2,1.2,0,0,1,0,1.53L5.848,10.153A.882.882,0,0,1,5.182,10.469Z" transform="translate(283.757 228.602)"/></g></svg>