<svg width="10" height="16" viewBox="0 0 10 16" fill="none" xmlns="http://www.w3.org/2000/svg">
<path d="M1.6 3.19999C2.48365 3.19999 3.19999 2.48365 3.19999 1.6C3.19999 0.716343 2.48365 0 1.6 0C0.716343 0 0 0.716343 0 1.6C0 2.48365 0.716343 3.19999 1.6 3.19999Z" fill="#0F172A"/>
<path d="M1.6 9.60003C2.48365 9.60003 3.19999 8.88369 3.19999 8.00003C3.19999 7.11637 2.48365 6.40002 1.6 6.40002C0.716343 6.40002 0 7.11637 0 8.00003C0 8.88369 0.716343 9.60003 1.6 9.60003Z" fill="#0F172A"/>
<path d="M1.6 16C2.48365 16 3.19999 15.2836 3.19999 14.4C3.19999 13.5163 2.48365 12.8 1.6 12.8C0.716343 12.8 0 13.5163 0 14.4C0 15.2836 0.716343 16 1.6 16Z" fill="#0F172A"/>
<path d="M7.99989 3.19999C8.88354 3.19999 9.59988 2.48365 9.59988 1.6C9.59988 0.716343 8.88354 0 7.99989 0C7.11624 0 6.39989 0.716343 6.39989 1.6C6.39989 2.48365 7.11624 3.19999 7.99989 3.19999Z" fill="#0F172A"/>
<path d="M7.99989 9.60003C8.88354 9.60003 9.59988 8.88369 9.59988 8.00003C9.59988 7.11637 8.88354 6.40002 7.99989 6.40002C7.11624 6.40002 6.39989 7.11637 6.39989 8.00003C6.39989 8.88369 7.11624 9.60003 7.99989 9.60003Z" fill="#0F172A"/>
<path d="M7.99989 16C8.88354 16 9.59988 15.2836 9.59988 14.4C9.59988 13.5163 8.88354 12.8 7.99989 12.8C7.11624 12.8 6.39989 13.5163 6.39989 14.4C6.39989 15.2836 7.11624 16 7.99989 16Z" fill="#0F172A"/>
</svg>
