<svg xmlns="http://www.w3.org/2000/svg" width="20" height="19.886" viewBox="0 0 20 19.886"><g transform="translate(0 -0.261)"><path d="M18.451,49.716a.5.5,0,0,0-.5.5v4.419a1.492,1.492,0,0,1-1.492,1.492H2.486A1.492,1.492,0,0,1,.995,54.633V41.66a1.492,1.492,0,0,1,1.492-1.492H6.911a.5.5,0,0,0,0-.995H2.486A2.486,2.486,0,0,0,0,41.66V54.633a2.486,2.486,0,0,0,2.486,2.486H16.46a2.486,2.486,0,0,0,2.486-2.486V50.214a.5.5,0,0,0-.5-.5Zm0,0" transform="translate(0 -36.972)"/><path d="M121.553.917a2.241,2.241,0,0,0-3.169,0L109.5,9.8a.5.5,0,0,0-.128.219l-1.16,4.217a.5.5,0,0,0,.613.613l4.217-1.16a.5.5,0,0,0,.219-.128l8.883-8.883a2.243,2.243,0,0,0,0-3.169Zm-10.967,9.206,7.27-7.27L120.2,5.2l-7.27,7.27Zm-.469.94,1.873,1.873-2.591.718Zm11.316-7.091L120.9,4.5l-2.344-2.352.529-.529a1.245,1.245,0,0,1,1.76,0l.585.583a1.247,1.247,0,0,1,0,1.769Zm0,0" transform="translate(-102.8 0)"/></g></svg>