<svg xmlns="http://www.w3.org/2000/svg" width="20" height="20" viewBox="0 0 20 20"><path d="M10,0A10,10,0,1,0,20,10,10.008,10.008,0,0,0,10,0Zm0,18.991A8.991,8.991,0,1,1,18.991,10,9.006,9.006,0,0,1,10,18.991Z"/><g transform="translate(6.221 6.174)"><path d="M110.484,108.979l2.934-2.934a.5.5,0,0,0-.7-.7l-2.934,2.934-2.934-2.934a.5.5,0,0,0-.7.7l2.934,2.934-2.934,2.911a.511.511,0,0,0,0,.7.511.511,0,0,0,.7,0l2.934-2.934,2.934,2.934a.511.511,0,0,0,.7,0,.511.511,0,0,0,0-.7Z" transform="translate(-106 -105.2)"/></g></svg>