<svg xmlns="http://www.w3.org/2000/svg" width="64" height="64" viewBox="0 0 64 64"><g transform="translate(-223 -44)"><rect width="64" height="64" rx="8" transform="translate(223 44)" fill="#fff"/><g transform="translate(-383.353 33.274)"><path d="M175.834,2297.814h0v-5.507a11.024,11.024,0,0,0,4.834-1.176,20.608,20.608,0,0,0,4.185-2.8l2.924,4.468a21.256,21.256,0,0,1-5.93,3.7,17.744,17.744,0,0,1-6.012,1.323Zm-4.874-.383h0a18.675,18.675,0,0,1-3.249-.98,16.5,16.5,0,0,1-5.89-4.021,19.007,19.007,0,0,1-3.9-6.5,25.264,25.264,0,0,1-1.422-8.734,23.694,23.694,0,0,1,1.544-8.814,19.936,19.936,0,0,1,4.143-6.54,17.355,17.355,0,0,1,6.051-4.062,19.256,19.256,0,0,1,2.722-.862v6.024l-.162.077a11.2,11.2,0,0,0-3.9,3.127,15.584,15.584,0,0,0-2.559,4.834,19.66,19.66,0,0,0-.934,6.215,20.089,20.089,0,0,0,.894,6.174,14.993,14.993,0,0,0,2.477,4.753,20.871,20.871,0,0,0,4.184,3.237v6.068Zm12.673-32.013h0a16.826,16.826,0,0,0-3.614-2.519,9.262,9.262,0,0,0-4.185-.975V2256.4a14.594,14.594,0,0,1,6.337,1.381,22.588,22.588,0,0,1,4.874,3.25l-3.412,4.387Z" transform="translate(466.207 -2231.24)"/><path d="M2.549,4.875H2.312A7.747,7.747,0,0,1,0,4.532V.343A8.555,8.555,0,0,1,2.433,0,8.553,8.553,0,0,1,4.865.343V4.532A7.76,7.76,0,0,1,2.549,4.875Z" transform="translate(637.17 18.826)"/><path d="M140.365,2278.363H135.5V2257.6h4.865Z" transform="translate(501.671 -2222.113)"/></g></g></svg>