<svg xmlns="http://www.w3.org/2000/svg" width="20" height="15.987" viewBox="0 0 20 15.987"><g transform="translate(-1.997 -4.793)"><path d="M25.087,20.788a.714.714,0,0,0,.714-.714V17.853a2.721,2.721,0,0,0,0-5.256V5.534a.714.714,0,0,0-1.428,0V12.6a2.721,2.721,0,0,0,0,5.256v2.221A.714.714,0,0,0,25.087,20.788ZM23.78,15.225a1.307,1.307,0,1,1,1.307,1.307A1.307,1.307,0,0,1,23.78,15.225Z" transform="translate(-5.821 -0.008)"/><path d="M14.9,20.78a.714.714,0,0,0,.714-.714v-9.9a2.735,2.735,0,1,0-1.428,0v9.9A.714.714,0,0,0,14.9,20.78ZM13.6,7.547a1.307,1.307,0,1,1,1.307,1.3,1.307,1.307,0,0,1-1.307-1.3Z" transform="translate(-2.908)"/><path d="M4.013,15.432v4.642a.714.714,0,1,0,1.428,0V15.432a2.721,2.721,0,0,0,0-5.256V5.534a.714.714,0,0,0-1.428,0v4.642a2.721,2.721,0,0,0,0,5.256ZM4.727,11.5a1.307,1.307,0,1,1-1.3,1.307,1.307,1.307,0,0,1,1.3-1.307Z" transform="translate(0 -0.008)"/></g></svg>