<svg xmlns="http://www.w3.org/2000/svg" width="339.501" height="91.603" viewBox="0 0 339.501 91.603"><path d="M448.9,2328.6a36.887,36.887,0,0,1-8.2-.85,20.043,20.043,0,0,1-6.35-2.551,12.72,12.72,0,0,1-4.1-4.1,10.661,10.661,0,0,1-1.451-5.6,10.384,10.384,0,0,1,1.9-5.9,16.327,16.327,0,0,1,1.485-1.871l5.074,2.366-.043.078-.016.028a8.435,8.435,0,0,0-1.2,4.2,7.026,7.026,0,0,0,3.75,6.2c2.489,1.526,5.971,2.3,10.35,2.3a22.307,22.307,0,0,0,6.35-.85,17.74,17.74,0,0,0,4.85-2.2,10.361,10.361,0,0,0,3.1-3.15,7.037,7.037,0,0,0,1.1-3.7c0-2.257-.841-3.838-2.5-4.7a16.31,16.31,0,0,0-7.3-1.3h-8.4c-.936,0-1.963-.051-3.05-.15a15.608,15.608,0,0,1-3.25-.65,28.018,28.018,0,0,1-5.1-2.1,9.567,9.567,0,0,1-3.05-3.051,9.734,9.734,0,0,1,.3-10.041l5.464,2.549a7.558,7.558,0,0,0-.114,1.343,4.755,4.755,0,0,0,1.8,3.8c1.2,1,3.483,1.5,6.8,1.5h9.4c5.641,0,9.931.925,12.75,2.75a8.732,8.732,0,0,1,3.187,3.588,12.111,12.111,0,0,1,1.062,5.263,13.112,13.112,0,0,1-1.7,6.449,16.584,16.584,0,0,1-4.9,5.351,25.847,25.847,0,0,1-7.75,3.649A36.18,36.18,0,0,1,448.9,2328.6Zm-114.2-21.2a15.934,15.934,0,0,1-6.55-1.2,11.322,11.322,0,0,1-4.3-3.3,12.931,12.931,0,0,1-2.35-5.1,29.213,29.213,0,0,1-.7-6.6v-20.9h8.3v21a12.443,12.443,0,0,0,1.65,6.95c1.094,1.625,3.063,2.45,5.85,2.45a10.968,10.968,0,0,0,2.8-.4,21.568,21.568,0,0,0,2.7-.9l1.6,6.2a42.835,42.835,0,0,1-4.35,1.249,20.415,20.415,0,0,1-4.65.551Zm-80.1,0a17.313,17.313,0,0,1-6.738-1.2,10.947,10.947,0,0,1-4.612-3.6,16.783,16.783,0,0,1-2.663-5.95,34.391,34.391,0,0,1-.888-8.25v-30.8H248v29.7c0,4.579.723,7.927,2.149,9.95s3.766,3.05,6.951,3.05a11.78,11.78,0,0,0,6.7-1.95c.335-.225.68-.477,1.026-.749l.53,6.058c-.625.48-1.266.931-1.906,1.341a16.131,16.131,0,0,1-8.85,2.4Zm-74.3-.021h0V2300.6a13.569,13.569,0,0,0,5.95-1.447,25.375,25.375,0,0,0,5.151-3.45l3.6,5.5a26.164,26.164,0,0,1-7.3,4.55,21.834,21.834,0,0,1-7.4,1.629Zm-6-.472h0a23,23,0,0,1-4-1.206,20.308,20.308,0,0,1-7.25-4.95,23.4,23.4,0,0,1-4.8-8A31.1,31.1,0,0,1,156.5,2282a29.166,29.166,0,0,1,1.9-10.849,24.543,24.543,0,0,1,5.1-8.051,21.368,21.368,0,0,1,7.449-5,23.718,23.718,0,0,1,3.351-1.06v7.415l-.2.095a13.789,13.789,0,0,0-4.8,3.85,19.184,19.184,0,0,0-3.15,5.95A24.2,24.2,0,0,0,165,2282a24.728,24.728,0,0,0,1.1,7.6,18.451,18.451,0,0,0,3.049,5.85,13.55,13.55,0,0,0,4.75,3.8c.133.064.268.126.4.185v7.47Zm242.4-.707h-8.2v-29.7c0-4.579-.74-7.926-2.2-9.95s-3.814-3.05-7-3.05a12,12,0,0,0-6.7,1.9c-.368.241-.75.507-1.136.791l-.585-6.075c.681-.483,1.378-.942,2.071-1.365a18.577,18.577,0,0,1,15.613-1.15,10.983,10.983,0,0,1,4.588,3.6,16.8,16.8,0,0,1,2.662,5.95,34.391,34.391,0,0,1,.888,8.25v30.8Zm-30.7,0h-8.2v-48.6h6.8l.292,2.922L386,2272.05Zm-24.6,0h-8.2v-48.6h8.2Zm-58.4,0h-8.2v-48.6H303Zm-24.6,0h-6.8l-.7-7.6-.028-.307-.672-6.229V2257.6h8.2Zm-64.5,0h-8.2v-48.6h6.8l.589,7.407.811,11.6v29.6Zm-70.2,0h-8.2v-48.6h8.2Zm305.2-15.4a16.133,16.133,0,0,1-3.7-.45,18.4,18.4,0,0,1-3.6-1.25,29.259,29.259,0,0,1-4.7-2.3,20,20,0,0,1-4.35-5.35,15.193,15.193,0,0,1-1.95-7.75,17.327,17.327,0,0,1,1.451-7.2,16.339,16.339,0,0,1,3.949-5.45,17.5,17.5,0,0,1,5.85-3.451,20.863,20.863,0,0,1,7.051-1.2,19.2,19.2,0,0,1,3.749.35,22.661,22.661,0,0,1,3.15.85h16.9v6.3h-10a14.3,14.3,0,0,1,4,10,17.261,17.261,0,0,1-1.4,7.051,15.484,15.484,0,0,1-3.8,5.3,17.5,17.5,0,0,1-5.65,3.35,19.986,19.986,0,0,1-6.95,1.2Zm0-28.4a10.064,10.064,0,0,0-7.3,2.949c-1.991,1.958-3,4.767-3,8.35a13.9,13.9,0,0,0,.8,4.85,10.433,10.433,0,0,0,2.25,3.65,10,10,0,0,0,14.5,0,10.418,10.418,0,0,0,2.25-3.65,13.888,13.888,0,0,0,.8-4.85c0-3.583-1.009-6.392-3-8.35a10.065,10.065,0,0,0-7.3-2.95Zm-259,5.1h0a20.718,20.718,0,0,0-4.449-3.1,11.4,11.4,0,0,0-5.151-1.2v-6.8a17.966,17.966,0,0,1,7.8,1.7,27.8,27.8,0,0,1,6,4l-4.2,5.4Zm29.324-.779h0l-.487-6.973c.268-.222.541-.439.813-.646a12.587,12.587,0,0,1,7.751-2.7,12.976,12.976,0,0,1,5.2,1l-1.6,7.2a18.738,18.738,0,0,0-2.2-.6,13.14,13.14,0,0,0-2.5-.2,10.935,10.935,0,0,0-6.449,2.5c-.176.131-.353.272-.525.419ZM342.2,2264.3h-7.1v-6.7h7.1Zm-13.1,0H313.6v-6.2l7.6-.5,1-13.6h6.9Zm28.3-16.7a5.82,5.82,0,0,1-4.05-1.5,5.258,5.258,0,0,1,0-7.649,6.378,6.378,0,0,1,8.1,0,5.258,5.258,0,0,1,0,7.649,5.82,5.82,0,0,1-4.05,1.5Zm-58.4,0a5.82,5.82,0,0,1-4.05-1.5,5.258,5.258,0,0,1,0-7.649,6.378,6.378,0,0,1,8.1,0,5.256,5.256,0,0,1,0,7.649,5.82,5.82,0,0,1-4.05,1.5Zm-159.3,0a5.82,5.82,0,0,1-4.05-1.5,5.258,5.258,0,0,1,0-7.649,6.378,6.378,0,0,1,8.1,0,5.256,5.256,0,0,1,0,7.649,5.82,5.82,0,0,1-4.05,1.5Z" transform="translate(-134 -2237)"/></svg>