<svg xmlns="http://www.w3.org/2000/svg" width="19.995" height="20" viewBox="0 0 19.995 20"><g transform="translate(-0.064 0)"><g transform="translate(0.064 0)"><g transform="translate(0 0)"><path d="M15.6,1.674A9.96,9.96,0,0,0,8.486.127a.856.856,0,0,0-.13.012A10,10,0,0,0,.213,11.7,10.231,10.231,0,0,0,.528,13a7.48,7.48,0,0,1-.382,5.4.833.833,0,0,0,.973,1.158l3.735-1.02A9.909,9.909,0,0,0,10.044,20a10.064,10.064,0,0,0,1.994-.2A10,10,0,0,0,15.6,1.674ZM17,14.613a8.33,8.33,0,0,1-11.55,2.324.831.831,0,0,0-.682-.109l-2.543.694A9.167,9.167,0,0,0,2.12,12.5a8.487,8.487,0,0,1-.264-1.086A8.33,8.33,0,0,1,8.53,1.8a.963.963,0,0,0,.119-.012A8.331,8.331,0,0,1,17,14.613Z" transform="translate(-0.064 0)"/></g></g><g transform="translate(9.232 4.918)"><path d="M235.594,125.909a.832.832,0,0,0-.833.833v5a.833.833,0,1,0,1.666,0v-5A.832.832,0,0,0,235.594,125.909Z" transform="translate(-234.761 -125.909)"/></g><g transform="translate(9.232 13.331)"><path d="M236.361,341.8a.777.777,0,0,0-.175-.275.794.794,0,0,0-.133-.1.9.9,0,0,0-.3-.125.832.832,0,0,0-.749.225.778.778,0,0,0-.175.275.785.785,0,0,0,0,.633.751.751,0,0,0,.45.45.783.783,0,0,0,.632,0,.972.972,0,0,0,.275-.175.962.962,0,0,0,.175-.275.785.785,0,0,0,0-.633Z" transform="translate(-234.762 -341.284)"/></g></g></svg>