<svg xmlns="http://www.w3.org/2000/svg" width="18.002" height="20" viewBox="0 0 18.002 20"><g transform="translate(-0.039 0)"><path d="M171.1,352.093a.333.333,0,0,0-.333.333v.333a1.328,1.328,0,0,0,2.333.873,1.328,1.328,0,0,0,2.333-.873v-.333a.333.333,0,1,0-.667,0v.333a.667.667,0,1,1-1.333,0V351.7a.826.826,0,0,0,.31-.2l.5-.533a.668.668,0,0,0,.136-.73.831.831,0,0,0-.778-.471h-1a.83.83,0,0,0-.778.471.668.668,0,0,0,.135.73l.5.533a.824.824,0,0,0,.31.2v1.062a.667.667,0,1,1-1.333,0v-.333A.333.333,0,0,0,171.1,352.093Zm1.333-1.6c0-.016.054-.071.167-.071h1c.114,0,.163.055.156.079l-.5.533a.267.267,0,0,1-.313,0Zm0,0" transform="translate(-164.062 -336.1)"/><path d="M111.485,299.43a1.707,1.707,0,0,1,1.4-.08,1.036,1.036,0,0,1,.482.623.333.333,0,0,0,.651-.141,1.7,1.7,0,0,0-.811-1.065,2.314,2.314,0,0,0-1.969.043.333.333,0,1,0,.243.621Zm0,0" transform="translate(-106.656 -286.906)"/><path d="M264.9,300.215a.333.333,0,0,0,.4-.257,1.027,1.027,0,0,1,.475-.617,1.7,1.7,0,0,1,1.411.077.333.333,0,0,0,.243-.621,2.313,2.313,0,0,0-1.969-.043,1.7,1.7,0,0,0-.811,1.065.333.333,0,0,0,.256.4Zm0,0" transform="translate(-254.264 -286.895)"/><path d="M.374,12.994a7.4,7.4,0,0,1,.907.057,5.712,5.712,0,0,0-.241,1.61v0a3.38,3.38,0,0,0-.851.386.333.333,0,1,0,.37.555,2.491,2.491,0,0,1,.536-.258,4.289,4.289,0,0,0,.344,1.171A2.372,2.372,0,0,0,.374,18.327c0,1.028,1.022,1.666,2.666,1.666a3.464,3.464,0,0,0,2.1-.554,13.059,13.059,0,0,0,3.9.554,13.057,13.057,0,0,0,3.9-.554,3.464,3.464,0,0,0,2.1.554c1.645,0,2.666-.638,2.666-1.666a2.372,2.372,0,0,0-1.065-1.809,4.289,4.289,0,0,0,.344-1.171,2.5,2.5,0,0,1,.536.258.333.333,0,1,0,.37-.555,3.38,3.38,0,0,0-.851-.386v0a5.7,5.7,0,0,0-.241-1.61,7.426,7.426,0,0,1,.907-.057.333.333,0,1,0,0-.667,8.146,8.146,0,0,0-1.137.08,7.394,7.394,0,0,0-.5-.994c.219-.712,1.078-3.706.338-4.727a.829.829,0,0,0-.695-.358,3.5,3.5,0,0,0-1.416.42,6.138,6.138,0,0,0-4.07-2.324,6.023,6.023,0,0,0-.17-1.347,1.013,1.013,0,0,1,.356-.988c.416-.28,1.095.153,1.367.352A1,1,0,1,0,12.963.827C11.134-.512,9.794.1,9.3.426A3,3,0,0,0,8.119,3.548a4.067,4.067,0,0,1,.114.825A6.241,6.241,0,0,0,3.78,6.746a3.5,3.5,0,0,0-1.406-.418.831.831,0,0,0-.7.358c-.738,1.017.117,4,.336,4.713a7.431,7.431,0,0,0-.5,1.008,8.163,8.163,0,0,0-1.136-.08.333.333,0,1,0,0,.667Zm.667,5.333a2.008,2.008,0,0,1,2-1.666,2.008,2.008,0,0,1,2,1.666c0,.485-.448.764-1.03.9a.99.99,0,0,0,.03-.232v-.667a.333.333,0,1,0-.667,0v.667a.333.333,0,0,1-.667,0v-.667a.333.333,0,1,0-.667,0v.667a.99.99,0,0,0,.03.232C1.489,19.09,1.041,18.812,1.041,18.327Zm16,0c0,.485-.448.764-1.03.9a1,1,0,0,0,.03-.232v-.667a.333.333,0,1,0-.667,0v.667a.333.333,0,0,1-.667,0v-.667a.333.333,0,1,0-.667,0v.667a.99.99,0,0,0,.03.232c-.581-.135-1.03-.413-1.03-.9a2.033,2.033,0,0,1,4,0ZM8.767,3.389A2.314,2.314,0,0,1,9.67.981c.466-.308,1.461-.668,2.9.384a.333.333,0,0,1-.393.538c-.828-.605-1.585-.736-2.131-.368a1.675,1.675,0,0,0-.632,1.7,5.373,5.373,0,0,1,.152,1.114c-.174-.012-.348-.02-.525-.02-.047,0-.094,0-.141,0A4.722,4.722,0,0,0,8.767,3.389ZM9.04,5a5.825,5.825,0,0,1,4.666,2.068c-.447.253-.94.566-1.486.949a7.772,7.772,0,0,0-6.355,0c-.549-.383-1.043-.7-1.491-.948A5.819,5.819,0,0,1,9.04,5ZM2.694,11.341c-.611-1.871-.825-3.783-.477-4.263A.171.171,0,0,1,2.374,7a3.227,3.227,0,0,1,1.34.462l.007.007.033.014A17.108,17.108,0,0,1,5.638,8.663a.332.332,0,0,0,.335.029,7.118,7.118,0,0,1,6.141,0,.332.332,0,0,0,.336-.029A7.973,7.973,0,0,1,15.716,7a.17.17,0,0,1,.155.082c.35.483.135,2.4-.478,4.277a.333.333,0,0,0,.034.28,6.88,6.88,0,0,1,.471.9,5.889,5.889,0,0,0-2.058.862.333.333,0,0,0,.4.534,5.485,5.485,0,0,1,1.9-.764,5.14,5.14,0,0,1,.23,1.331,9.7,9.7,0,0,0-1.659-.167.333.333,0,1,0,0,.667,9.292,9.292,0,0,1,1.635.175,3.66,3.66,0,0,1-.284,1.026,2.7,2.7,0,0,0-1.017-.2,2.647,2.647,0,0,0-2.666,2.333,1.356,1.356,0,0,0,.115.555,12.679,12.679,0,0,1-3.448.445,12.681,12.681,0,0,1-3.448-.445,1.356,1.356,0,0,0,.115-.555,2.647,2.647,0,0,0-2.666-2.333,2.7,2.7,0,0,0-1.017.2,3.66,3.66,0,0,1-.284-1.026,9.294,9.294,0,0,1,1.635-.175.333.333,0,0,0,0-.667,9.693,9.693,0,0,0-1.66.167,5.133,5.133,0,0,1,.229-1.331,5.481,5.481,0,0,1,1.9.764.333.333,0,0,0,.4-.534,5.887,5.887,0,0,0-2.059-.862,6.874,6.874,0,0,1,.478-.911A.333.333,0,0,0,2.694,11.341Zm0,0" transform="translate(0 0)"/></g></svg>