<svg width="16" height="16" viewBox="0 0 16 16" fill="none" xmlns="http://www.w3.org/2000/svg">
<path d="M1.6 14C1.16 14 0.783333 13.8531 0.47 13.5594C0.156667 13.2656 0 12.9125 0 12.5V3.5C0 3.0875 0.156667 2.73438 0.47 2.44063C0.783333 2.14688 1.16 2 1.6 2H14.4C14.84 2 15.2167 2.14688 15.53 2.44063C15.8433 2.73438 16 3.0875 16 3.5V12.5C16 12.9125 15.8433 13.2656 15.53 13.5594C15.2167 13.8531 14.84 14 14.4 14H1.6ZM8 8.75L1.6 5V12.5H14.4V5L8 8.75ZM8 7.25L14.4 3.5H1.6L8 7.25ZM1.6 5V3.5V12.5V5Z" fill="#0F172A"/>
</svg>
