<svg xmlns="http://www.w3.org/2000/svg" width="20" height="20.001" viewBox="0 0 20 20.001"><path d="M17.282,9.14,16.254,8.112a.918.918,0,0,1,1.3-1.3l2.595,2.6a.917.917,0,0,1,0,1.3L17.551,13.3a.917.917,0,1,1-1.3-1.3l1.029-1.028h-5.95v5.95L12.361,15.9a.917.917,0,1,1,1.3,1.3l-2.595,2.6a.917.917,0,0,1-1.3,0l-2.6-2.6a.917.917,0,1,1,1.3-1.3L9.5,16.925v-5.95H3.546L4.576,12a.917.917,0,1,1-1.3,1.3l-2.6-2.595a.917.917,0,0,1,0-1.3l2.6-2.6a.918.918,0,1,1,1.3,1.3L3.546,9.139H9.5V3.191L8.468,4.219a.917.917,0,1,1-1.3-1.3l2.6-2.6a.917.917,0,0,1,1.3,0l2.595,2.6a.917.917,0,1,1-1.3,1.3L11.332,3.19V9.14Z" transform="translate(-0.414 -0.057)"/></svg>