<svg xmlns="http://www.w3.org/2000/svg" width="20" height="20.153" viewBox="0 0 20 20.153"><g transform="translate(-1.94)"><g transform="translate(14.771 8.896)"><circle cx="0.394" cy="0.394" r="0.394"/></g><g transform="translate(9.275 10.971)"><path d="M194.25,278.743a.394.394,0,0,0-.447.332,2.145,2.145,0,0,1-1.642,1.612,3.147,3.147,0,0,1-3.184-.707.394.394,0,0,0-.58.532,3.468,3.468,0,0,0,1.9,1.036,4.2,4.2,0,0,0,.824.08,4.373,4.373,0,0,0,1.276-.189,2.9,2.9,0,0,0,2.19-2.249A.394.394,0,0,0,194.25,278.743Z" transform="translate(-188.293 -278.738)"/></g><g transform="translate(1.94)"><g transform="translate(0)"><path d="M20.7,7.495a4.873,4.873,0,0,0-2.891-1.583,22.331,22.331,0,0,0,2.819-2.2C21.7,2.7,22.055,1.981,21.757,1.464c-.332-.576-1.292-.572-3.02.013a30.227,30.227,0,0,0-5.122,2.416c-.318.184-.634.372-.942.561A2.114,2.114,0,0,1,13.1,2.43,1.5,1.5,0,0,0,13.32.841,1.59,1.59,0,0,0,11.828,0H11.81A9.77,9.77,0,0,0,5.2,2.668,9.92,9.92,0,0,0,1.98,9.088,10.11,10.11,0,0,0,12.016,20.153a10.738,10.738,0,0,0,4.215-.822,9.485,9.485,0,0,0,3.1-2.116,9.35,9.35,0,0,0,1.92-2.873,8.33,8.33,0,0,0,.684-3.11A5.49,5.49,0,0,0,20.7,7.495ZM12.718,5.353c.417-.263.85-.525,1.29-.778a30.346,30.346,0,0,1,4.777-2.282c1.516-.537,2.136-.5,2.281-.432-.013.092-.126.5-1.121,1.415A25.044,25.044,0,0,1,16.53,5.809c-.434.275-.885.548-1.341.811-.629.363-1.258.7-1.875,1.014A5.9,5.9,0,0,0,12.2,5.687Q12.454,5.52,12.718,5.353ZM12.6,7.982A20.184,20.184,0,0,1,9.655,9.144,1.964,1.964,0,0,0,9.061,8.1,20.241,20.241,0,0,1,11.539,6.13,5.132,5.132,0,0,1,12.6,7.982Zm8.551,3.239c-.056,3.917-3.565,8.144-9.136,8.144A9.29,9.29,0,0,1,11.81.787h.018a.816.816,0,0,1,.784.4.717.717,0,0,1-.13.759,2.889,2.889,0,0,0-.486,2.938c-.211.136-.418.272-.619.408l0,0A20.966,20.966,0,0,0,8.361,7.682a1.958,1.958,0,0,0-1.617.158c-.818.472-1.892,2.674-2.1,3.11a.394.394,0,0,0,.324.561c.218.018.835.062,1.523.062a5.364,5.364,0,0,0,2.22-.325,1.963,1.963,0,0,0,.939-1.287,20.822,20.822,0,0,0,3.592-1.415c.765-.372,1.552-.792,2.339-1.246.4-.231.794-.468,1.178-.708h.007A4.232,4.232,0,0,1,21.152,11.221ZM8.907,9.619a1.179,1.179,0,0,1-.589.949,7.652,7.652,0,0,1-2.7.2,7.652,7.652,0,0,1,1.52-2.241,1.181,1.181,0,0,1,1.769,1.1Z" transform="translate(-1.94)"/></g></g><g transform="translate(7.292 2.434)"><path d="M139.5,61.84a1.574,1.574,0,1,0,1.574,1.574A1.576,1.576,0,0,0,139.5,61.84Zm0,2.362a.787.787,0,1,1,.787-.787A.788.788,0,0,1,139.5,64.2Z" transform="translate(-137.922 -61.84)"/></g><g transform="translate(5.324 13.011)"><path d="M89.5,330.55a1.574,1.574,0,1,0,1.574,1.574A1.576,1.576,0,0,0,89.5,330.55Zm0,2.362a.787.787,0,1,1,.787-.787A.788.788,0,0,1,89.5,332.912Z" transform="translate(-87.922 -330.55)"/></g><g transform="translate(9.26 15.372)"><path d="M189.5,390.55a1.574,1.574,0,1,0,1.574,1.574A1.576,1.576,0,0,0,189.5,390.55Zm0,2.362a.787.787,0,1,1,.787-.787A.788.788,0,0,1,189.5,392.912Z" transform="translate(-187.922 -390.55)"/></g><g transform="translate(13.983 14.585)"><path d="M309.5,370.55a1.574,1.574,0,1,0,1.574,1.574A1.576,1.576,0,0,0,309.5,370.55Zm0,2.362a.787.787,0,1,1,.787-.787A.788.788,0,0,1,309.5,372.912Z" transform="translate(-307.922 -370.55)"/></g><g transform="translate(17.132 10.649)"><path d="M389.5,270.55a1.574,1.574,0,1,0,1.574,1.574A1.576,1.576,0,0,0,389.5,270.55Zm0,2.362a.787.787,0,1,1,.787-.787A.788.788,0,0,1,389.5,272.912Z" transform="translate(-387.922 -270.55)"/></g></g></svg>