<svg width="16" height="16" viewBox="0 0 16 16" fill="#1C1B1F" xmlns="http://www.w3.org/2000/svg">
<path d="M13.6 15C13.08 15 12.6133 14.8542 12.2 14.5625C11.7867 14.2708 11.5 13.8981 11.34 13.4444H7.2C6.32 13.4444 5.56667 13.1398 4.94 12.5306C4.31333 11.9213 4 11.1889 4 10.3333C4 9.47778 4.31333 8.74537 4.94 8.13611C5.56667 7.52685 6.32 7.22222 7.2 7.22222H8.8C9.24 7.22222 9.61667 7.06991 9.93 6.76528C10.2433 6.46065 10.4 6.09444 10.4 5.66667C10.4 5.23889 10.2433 4.87269 9.93 4.56806C9.61667 4.26343 9.24 4.11111 8.8 4.11111H4.66C4.48667 4.56481 4.19667 4.9375 3.79 5.22917C3.38333 5.52083 2.92 5.66667 2.4 5.66667C1.73333 5.66667 1.16667 5.43981 0.7 4.98611C0.233333 4.53241 0 3.98148 0 3.33333C0 2.68519 0.233333 2.13426 0.7 1.68056C1.16667 1.22685 1.73333 1 2.4 1C2.92 1 3.38333 1.14583 3.79 1.4375C4.19667 1.72917 4.48667 2.10185 4.66 2.55556H8.8C9.68 2.55556 10.4333 2.86019 11.06 3.46944C11.6867 4.0787 12 4.81111 12 5.66667C12 6.52222 11.6867 7.25463 11.06 7.86389C10.4333 8.47315 9.68 8.77778 8.8 8.77778H7.2C6.76 8.77778 6.38333 8.93009 6.07 9.23472C5.75667 9.53935 5.6 9.90556 5.6 10.3333C5.6 10.7611 5.75667 11.1273 6.07 11.4319C6.38333 11.7366 6.76 11.8889 7.2 11.8889H11.34C11.5133 11.4352 11.8033 11.0625 12.21 10.7708C12.6167 10.4792 13.08 10.3333 13.6 10.3333C14.2667 10.3333 14.8333 10.5602 15.3 11.0139C15.7667 11.4676 16 12.0185 16 12.6667C16 13.3148 15.7667 13.8657 15.3 14.3194C14.8333 14.7731 14.2667 15 13.6 15ZM2.4 4.11111C2.62667 4.11111 2.81667 4.03657 2.97 3.8875C3.12333 3.73843 3.2 3.5537 3.2 3.33333C3.2 3.11296 3.12333 2.92824 2.97 2.77917C2.81667 2.63009 2.62667 2.55556 2.4 2.55556C2.17333 2.55556 1.98333 2.63009 1.83 2.77917C1.67667 2.92824 1.6 3.11296 1.6 3.33333C1.6 3.5537 1.67667 3.73843 1.83 3.8875C1.98333 4.03657 2.17333 4.11111 2.4 4.11111Z" fill="inherit"/>
</svg>
