<svg width="16" height="16" viewBox="0 0 16 16" fill="none" xmlns="http://www.w3.org/2000/svg">
<path d="M1.6 16C1.16 16 0.783467 15.8352 0.4704 15.5057C0.1568 15.1756 0 14.7789 0 14.3158V5.05263C0 4.58947 0.1568 4.19312 0.4704 3.86358C0.783467 3.53347 1.16 3.36842 1.6 3.36842H4.8V1.68421C4.8 1.22105 4.9568 0.824421 5.2704 0.494316C5.58347 0.164772 5.96 0 6.4 0H9.6C10.04 0 10.4168 0.164772 10.7304 0.494316C11.0435 0.824421 11.2 1.22105 11.2 1.68421V3.36842H14.4C14.84 3.36842 15.2168 3.53347 15.5304 3.86358C15.8435 4.19312 16 4.58947 16 5.05263V14.3158C16 14.7789 15.8435 15.1756 15.5304 15.5057C15.2168 15.8352 14.84 16 14.4 16H1.6ZM1.6 14.3158H14.4V5.05263H1.6V14.3158ZM6.4 3.36842H9.6V1.68421H6.4V3.36842Z" fill="#0F172A"/>
</svg>
