<svg xmlns="http://www.w3.org/2000/svg" width="20" height="17.333" viewBox="0 0 20 17.333"><path d="M19,35.333H15.333v-1A2.336,2.336,0,0,0,13,32H7a2.336,2.336,0,0,0-2.333,2.333v1H1a1,1,0,0,0-1,1V43a1,1,0,0,0,.667.939v4.395a1,1,0,0,0,1,1H18.333a1,1,0,0,0,1-1V43.939A1,1,0,0,0,20,43V36.333A1,1,0,0,0,19,35.333Zm-13.667-1A1.669,1.669,0,0,1,7,32.667h6a1.669,1.669,0,0,1,1.667,1.667v1h-.68l.013-1a1,1,0,0,0-1-1H6.988a1,1,0,0,0-1,1v0l.009,1H5.333Zm8,0-.013,1H6.663l-.01-1A.333.333,0,0,1,6.986,34H13A.333.333,0,0,1,13.333,34.329Zm5.333,14a.333.333,0,0,1-.333.333H1.667a.333.333,0,0,1-.333-.333V44H3.667v1A.333.333,0,0,0,4,45.333H5.333A.333.333,0,0,0,5.667,45V44h8.667v1a.333.333,0,0,0,.333.333H16A.333.333,0,0,0,16.333,45V44h2.333ZM4.333,44.667V43a.325.325,0,0,1,.1-.237.317.317,0,0,1,.231-.1A.333.333,0,0,1,5,43v1.667Zm10.667,0V43a.333.333,0,0,1,.333-.333.325.325,0,0,1,.238.1.322.322,0,0,1,.1.231v1.667ZM19.333,43a.333.333,0,0,1-.333.333H16.333V43a1,1,0,0,0-2,0v.333H5.667V43a1,1,0,0,0-2,0v.333H1A.333.333,0,0,1,.667,43V36.333A.333.333,0,0,1,1,36H19a.333.333,0,0,1,.333.333Z" transform="translate(0 -32)"/></svg>