<svg xmlns="http://www.w3.org/2000/svg" width="16.232" height="20" viewBox="0 0 16.232 20"><g transform="translate(-48.2)"><path d="M64.26,5.191,59.24.172A.586.586,0,0,0,58.826,0H50.355A2.164,2.164,0,0,0,48.2,2.155V17.845A2.164,2.164,0,0,0,50.355,20H62.277a2.164,2.164,0,0,0,2.155-2.157V5.605a.586.586,0,0,0-.172-.414ZM59.412,2l3.02,3.02H60.394a.983.983,0,0,1-.983-.983Zm2.865,16.825H50.355a.983.983,0,0,1-.983-.983V2.155a.983.983,0,0,1,.983-.983h7.886V4.038A2.164,2.164,0,0,0,60.4,6.192H63.26v11.65a.983.983,0,0,1-.983.982Z" transform="translate(0)"/><path d="M115.562,224.933h-2.509a.586.586,0,0,0-.586.586v2.511a.586.586,0,0,0,.586.586h2.511a.586.586,0,0,0,.586-.586v-2.51a.586.586,0,0,0-.586-.586Zm-.586,2.51h-1.338v-1.338h1.338Z" transform="translate(-61.755 -216.148)"/><path d="M115.562,353.467h-2.509a.586.586,0,0,0-.586.586v2.51a.586.586,0,0,0,.586.586h2.51a.586.586,0,0,0,.586-.586v-2.51a.586.586,0,0,0-.587-.586Zm-.586,2.51h-1.338V354.64h1.338Z" transform="translate(-61.755 -339.662)"/><path d="M241,225.519a.586.586,0,0,0,.586.586h2.51a.586.586,0,0,0,0-1.171h-2.51a.586.586,0,0,0-.586.586Z" transform="translate(-185.27 -216.148)"/><path d="M246.605,289.2h-5.02a.586.586,0,1,0,0,1.171h5.02a.586.586,0,0,0,0-1.171Z" transform="translate(-185.27 -277.906)"/><path d="M241.586,354.638h2.51a.586.586,0,0,0,0-1.171h-2.51a.586.586,0,1,0,0,1.171Z" transform="translate(-185.27 -339.662)"/><path d="M246.605,417.733h-5.02a.586.586,0,1,0,0,1.171h5.02a.586.586,0,0,0,0-1.171Z" transform="translate(-185.27 -401.418)"/><path d="M113.053,81.505h3.138a.586.586,0,0,0,0-1.171h-3.138a.586.586,0,1,0,0,1.171Z" transform="translate(-61.757 -77.195)"/><path d="M113.053,145.771h5.02a.586.586,0,0,0,0-1.171h-5.02a.586.586,0,0,0,0,1.171Z" transform="translate(-61.757 -138.953)"/></g></svg>