<svg width="20" height="18" viewBox="0 0 20 18" fill="#1C1B1F" xmlns="http://www.w3.org/2000/svg">
<path d="M6.44444 6C6.6963 6 6.90741 5.90417 7.07778 5.7125C7.24815 5.52083 7.33333 5.28333 7.33333 5C7.33333 4.71667 7.24815 4.47917 7.07778 4.2875C6.90741 4.09583 6.6963 4 6.44444 4C6.19259 4 5.98148 4.09583 5.81111 4.2875C5.64074 4.47917 5.55556 4.71667 5.55556 5C5.55556 5.28333 5.64074 5.52083 5.81111 5.7125C5.98148 5.90417 6.19259 6 6.44444 6ZM6.44444 10C6.6963 10 6.90741 9.90417 7.07778 9.7125C7.24815 9.52083 7.33333 9.28333 7.33333 9C7.33333 8.71667 7.24815 8.47917 7.07778 8.2875C6.90741 8.09583 6.6963 8 6.44444 8C6.19259 8 5.98148 8.09583 5.81111 8.2875C5.64074 8.47917 5.55556 8.71667 5.55556 9C5.55556 9.28333 5.64074 9.52083 5.81111 9.7125C5.98148 9.90417 6.19259 10 6.44444 10ZM6.44444 14C6.6963 14 6.90741 13.9042 7.07778 13.7125C7.24815 13.5208 7.33333 13.2833 7.33333 13C7.33333 12.7167 7.24815 12.4792 7.07778 12.2875C6.90741 12.0958 6.6963 12 6.44444 12C6.19259 12 5.98148 12.0958 5.81111 12.2875C5.64074 12.4792 5.55556 12.7167 5.55556 13C5.55556 13.2833 5.64074 13.5208 5.81111 13.7125C5.98148 13.9042 6.19259 14 6.44444 14ZM3.77778 18C3.28889 18 2.87037 17.8042 2.52222 17.4125C2.17407 17.0208 2 16.55 2 16V2C2 1.45 2.17407 0.979167 2.52222 0.5875C2.87037 0.195833 3.28889 0 3.77778 0H13.5556L18 5V16C18 16.55 17.8259 17.0208 17.4778 17.4125C17.1296 17.8042 16.7111 18 16.2222 18H3.77778ZM3.77778 16H16.2222V6H12.6667V2H3.77778V16Z" fill="inherit"/>
</svg>
