<svg xmlns="http://www.w3.org/2000/svg" width="20" height="20" viewBox="0 0 20 20"><g transform="translate(0 6.667)"><path d="M12.333,165h-.367a.328.328,0,0,1-.309-.215c-.041-.107-.084-.211-.131-.314a.329.329,0,0,1,.067-.372l.261-.262a1,1,0,0,0,0-1.413l-.942-.942a1,1,0,0,0-1.413,0l-.261.261a.33.33,0,0,1-.372.067c-.1-.047-.208-.091-.315-.133a.328.328,0,0,1-.216-.309V161a1,1,0,0,0-1-1H6a1,1,0,0,0-1,1v.367a.328.328,0,0,1-.215.309c-.107.041-.211.084-.314.131a.33.33,0,0,1-.372-.067l-.262-.261a1,1,0,0,0-1.413,0l-.942.945a1,1,0,0,0,0,1.413l.261.261a.329.329,0,0,1,.067.372c-.047.1-.091.208-.132.315a.328.328,0,0,1-.311.215H1a1,1,0,0,0-1,1v1.333a1,1,0,0,0,1,1h.367a.328.328,0,0,1,.309.215c.041.107.084.211.131.314a.329.329,0,0,1-.067.372l-.261.262a1,1,0,0,0,0,1.413l.942.942a1,1,0,0,0,1.413,0l.261-.261a.33.33,0,0,1,.372-.067c.1.047.208.091.315.133a.328.328,0,0,1,.218.309v.367a1,1,0,0,0,1,1H7.333a1,1,0,0,0,1-1v-.367a.328.328,0,0,1,.215-.309c.107-.041.211-.084.314-.131a.33.33,0,0,1,.372.067l.262.261a1,1,0,0,0,1.413,0l.942-.942a1,1,0,0,0,0-1.413l-.261-.261a.329.329,0,0,1-.067-.372c.047-.1.091-.208.133-.315a.328.328,0,0,1,.309-.216h.367a1,1,0,0,0,1-1V166A1,1,0,0,0,12.333,165Zm.333,2.333a.333.333,0,0,1-.333.333h-.367a1,1,0,0,0-.933.645q-.053.14-.115.276a1,1,0,0,0,.2,1.119l.261.261a.333.333,0,0,1,0,.471h0l-.942.942a.333.333,0,0,1-.471,0l-.261-.261a1,1,0,0,0-1.119-.2c-.09.041-.182.079-.275.115a1,1,0,0,0-.644.933v.367a.333.333,0,0,1-.333.333H6a.333.333,0,0,1-.333-.333v-.367a1,1,0,0,0-.645-.933q-.14-.053-.276-.115a1,1,0,0,0-1.119.2l-.261.261a.333.333,0,0,1-.471,0h0l-.942-.941a.333.333,0,0,1,0-.471l.261-.261a1,1,0,0,0,.2-1.119c-.041-.09-.079-.182-.115-.275a1,1,0,0,0-.933-.645H1a.333.333,0,0,1-.333-.333V166A.333.333,0,0,1,1,165.667h.367a1,1,0,0,0,.933-.645q.053-.14.115-.276a1,1,0,0,0-.2-1.119l-.262-.261a.333.333,0,0,1,0-.471h0l.942-.942a.333.333,0,0,1,.471,0l.261.261a1,1,0,0,0,1.119.2c.09-.041.182-.079.275-.115a1,1,0,0,0,.646-.933V161A.333.333,0,0,1,6,160.667H7.333a.333.333,0,0,1,.333.333v.367a1,1,0,0,0,.645.933q.14.053.276.115a1,1,0,0,0,1.119-.2l.261-.261a.335.335,0,0,1,.472,0l.942.942a.333.333,0,0,1,0,.471l-.261.261a1,1,0,0,0-.2,1.119c.041.09.079.182.115.275a1,1,0,0,0,.933.644h.367a.333.333,0,0,1,.333.333v1.333Z" transform="translate(0 -160)"/></g><g transform="translate(3.665 10.333)"><path d="M93.954,250.867c0-.08-.009-.16-.019-.239s-.023-.17-.041-.253c-.012-.054-.027-.108-.042-.162s-.04-.136-.063-.2c-.016-.046-.033-.092-.051-.138a2.968,2.968,0,0,0-.147-.312c0-.008-.007-.016-.011-.024a2.957,2.957,0,0,0-.3-.437l-.031-.035c-.046-.054-.093-.107-.143-.157-.026-.027-.053-.052-.081-.078l-.1-.091q-.061-.053-.124-.1l-.055-.041A2.979,2.979,0,0,0,90.96,248c-.033,0-.067.005-.1.006-.071,0-.142.006-.214.013l-.113.014a3.053,3.053,0,0,0-.323.06,3,3,0,0,0,0,5.813l.017,0a3.175,3.175,0,0,0,.349.067c.078.01.155.012.233.015.052,0,.1.01.154.01.1,0,.194-.006.294-.016a.325.325,0,0,0,.033,0c.081-.009.163-.021.247-.038.033-.006.064-.015.1-.022.059-.014.117-.028.177-.046s.092-.03.138-.046l.14-.051c.047-.018.087-.039.13-.059s.112-.051.167-.081h0a3.945,3.945,0,0,0,.854-.617,1.049,1.049,0,0,0,.179-.219,3.558,3.558,0,0,0,.5-1.37c.009-.064.018-.129.023-.194s.008-.12.009-.18c0-.019,0-.037,0-.056C93.96,250.955,93.956,250.912,93.954,250.867Zm-.664.218c0,.028,0,.055,0,.083-.006.081-.016.161-.03.242a2.338,2.338,0,0,1-1.171,1.633c-.041.022-.082.042-.123.061l-.028.013a2.407,2.407,0,0,1-.608.184l-.045.007c-.042.006-.083.011-.123.015s-.108.007-.163.008h-.07a2.337,2.337,0,0,1-.236-.015l-.04,0a2.466,2.466,0,0,1-.272-.051,2.333,2.333,0,0,1,0-4.52h0a2.414,2.414,0,0,1,.586-.073,2.306,2.306,0,0,1,.285.019l.075.011c.072.011.143.026.214.044l.069.018a2.354,2.354,0,0,1,.508.214l.076.046c.053.033.1.067.154.1.027.02.054.039.08.06a2.4,2.4,0,0,1,.188.167c.024.024.045.05.068.075.038.042.076.084.111.129s.048.063.072.1c.033.048.067.1.1.149l.05.083a2.288,2.288,0,0,1,.115.244c.013.033.025.067.037.1.022.061.04.123.057.186.008.033.018.063.025.1a2.349,2.349,0,0,1,.042.273c0,.024,0,.049,0,.073C93.291,250.931,93.292,251.008,93.289,251.085Z" transform="translate(-87.959 -248)"/></g><g transform="translate(3.636)"><path d="M102.625,7h-1.048a.325.325,0,0,1-.311-.219,6.942,6.942,0,0,0-.374-.9.326.326,0,0,1,.064-.376l.743-.744a1,1,0,0,0,0-1.414l-1.417-1.415a1,1,0,0,0-1.414,0l-.743.743a.326.326,0,0,1-.376.064,6.925,6.925,0,0,0-.9-.376.325.325,0,0,1-.22-.311V1a1,1,0,0,0-1-1h-2a1,1,0,0,0-1,1V2.048a.325.325,0,0,1-.219.311,6.947,6.947,0,0,0-.9.376.326.326,0,0,1-.376-.064l-.744-.743a1,1,0,0,0-1.414,0L87.554,3.342a1,1,0,0,0,0,1.414l1.093,1.095a.333.333,0,0,0,.472-.471L88.025,4.286a.333.333,0,0,1,0-.471L89.44,2.4a.333.333,0,0,1,.471,0l.745.743a.991.991,0,0,0,1.145.188,6.306,6.306,0,0,1,.817-.34.992.992,0,0,0,.674-.943V1a.333.333,0,0,1,.333-.333h2A.333.333,0,0,1,95.959,1V2.048a.991.991,0,0,0,.674.943,6.287,6.287,0,0,1,.817.34.993.993,0,0,0,1.145-.188l.745-.743a.333.333,0,0,1,.471,0l1.415,1.415a.333.333,0,0,1,0,.471l-.743.745a.992.992,0,0,0-.188,1.145,6.306,6.306,0,0,1,.34.817.991.991,0,0,0,.943.674h1.048a.333.333,0,0,1,.333.333v2a.333.333,0,0,1-.333.333h-1.048a.991.991,0,0,0-.943.674,6.28,6.28,0,0,1-.34.817.992.992,0,0,0,.188,1.145l.743.745a.333.333,0,0,1,0,.471L99.81,15.6a.333.333,0,0,1-.471,0l-1.1-1.093a.333.333,0,0,0-.479.464l.008.008,1.1,1.093a1,1,0,0,0,1.414,0l1.415-1.414a1,1,0,0,0,0-1.414l-.742-.744a.327.327,0,0,1-.064-.376,6.925,6.925,0,0,0,.376-.9.325.325,0,0,1,.311-.22h1.048a1,1,0,0,0,1-1V8A1,1,0,0,0,102.625,7Z" transform="translate(-87.261)"/></g><g transform="translate(7.842 4.669)"><path d="M194.44,113.317a4.338,4.338,0,0,0-6.128,0,.333.333,0,0,0,.471.471,3.667,3.667,0,1,1,5.22,5.151l-.035.035a.333.333,0,0,0,.463.479l.008-.008A4.338,4.338,0,0,0,194.44,113.317Z" transform="translate(-188.219 -112.049)"/></g></svg>