<svg width="16" height="16" viewBox="0 0 16 16" fill="none" xmlns="http://www.w3.org/2000/svg">
<g clip-path="url(#clip0_24_358)">
<path d="M5.81095 16L5.49254 13.44C5.32007 13.3733 5.15768 13.2933 5.00537 13.2C4.85254 13.1067 4.70315 13.0067 4.55721 12.9L2.18905 13.9L0 10.1L2.04975 8.54C2.03648 8.44667 2.02985 8.35653 2.02985 8.2696V7.7296C2.02985 7.6432 2.03648 7.55333 2.04975 7.46L0 5.9L2.18905 2.1L4.55721 3.1C4.70315 2.99333 4.85572 2.89333 5.01493 2.8C5.17413 2.70667 5.33333 2.62667 5.49254 2.56L5.81095 0H10.1891L10.5075 2.56C10.6799 2.62667 10.8426 2.70667 10.9954 2.8C11.1477 2.89333 11.2969 2.99333 11.4428 3.1L13.8109 2.1L16 5.9L13.9502 7.46C13.9635 7.55333 13.9701 7.6432 13.9701 7.7296V8.2696C13.9701 8.35653 13.9569 8.44667 13.9303 8.54L15.9801 10.1L13.791 13.9L11.4428 12.9C11.2969 13.0067 11.1443 13.1067 10.9851 13.2C10.8259 13.2933 10.6667 13.3733 10.5075 13.44L10.1891 16H5.81095ZM8.0398 10.8C8.80929 10.8 9.466 10.5267 10.01 9.98C10.5539 9.43333 10.8259 8.77333 10.8259 8C10.8259 7.22667 10.5539 6.56667 10.01 6.02C9.466 5.47333 8.80929 5.2 8.0398 5.2C7.25705 5.2 6.59688 5.47333 6.0593 6.02C5.52226 6.56667 5.25373 7.22667 5.25373 8C5.25373 8.77333 5.52226 9.43333 6.0593 9.98C6.59688 10.5267 7.25705 10.8 8.0398 10.8ZM8.0398 9.2C7.70813 9.2 7.42634 9.0832 7.19443 8.8496C6.96199 8.61653 6.84577 8.33333 6.84577 8C6.84577 7.66667 6.96199 7.38347 7.19443 7.1504C7.42634 6.9168 7.70813 6.8 8.0398 6.8C8.37148 6.8 8.65353 6.9168 8.88597 7.1504C9.11788 7.38347 9.23383 7.66667 9.23383 8C9.23383 8.33333 9.11788 8.61653 8.88597 8.8496C8.65353 9.0832 8.37148 9.2 8.0398 9.2ZM7.20398 14.4H8.77612L9.05473 12.28C9.466 12.1733 9.84756 12.0165 10.1994 11.8096C10.5507 11.6032 10.8723 11.3533 11.1642 11.06L13.1343 11.88L13.9104 10.52L12.199 9.22C12.2653 9.03333 12.3118 8.83653 12.3383 8.6296C12.3648 8.4232 12.3781 8.21333 12.3781 8C12.3781 7.78667 12.3648 7.57653 12.3383 7.3696C12.3118 7.1632 12.2653 6.96667 12.199 6.78L13.9104 5.48L13.1343 4.12L11.1642 4.96C10.8723 4.65333 10.5507 4.39653 10.1994 4.1896C9.84756 3.9832 9.466 3.82667 9.05473 3.72L8.79602 1.6H7.22388L6.94527 3.72C6.534 3.82667 6.1527 3.9832 5.80139 4.1896C5.44955 4.39653 5.1277 4.64667 4.83582 4.94L2.86567 4.12L2.08955 5.48L3.801 6.76C3.73466 6.96 3.68823 7.16 3.66169 7.36C3.63516 7.56 3.62189 7.77333 3.62189 8C3.62189 8.21333 3.63516 8.42 3.66169 8.62C3.68823 8.82 3.73466 9.02 3.801 9.22L2.08955 10.52L2.86567 11.88L4.83582 11.04C5.1277 11.3467 5.44955 11.6032 5.80139 11.8096C6.1527 12.0165 6.534 12.1733 6.94527 12.28L7.20398 14.4Z" fill="#0F172A"/>
</g>
<defs>
<clipPath id="clip0_24_358">
<rect width="16" height="16" fill="white"/>
</clipPath>
</defs>
</svg>
