<svg xmlns="http://www.w3.org/2000/svg" width="18.297" height="20" viewBox="0 0 18.297 20"><g transform="translate(-11.065 -8)"><path d="M35.333,34.444c1.869,0,3.333-.976,3.333-2.222S37.2,30,35.333,30,32,30.976,32,32.222,33.464,34.444,35.333,34.444Zm0-3.889c1.506,0,2.778.763,2.778,1.667s-1.272,1.667-2.778,1.667-2.778-.763-2.778-1.667S33.828,30.556,35.333,30.556Z" transform="translate(-15.12 -15.889)"/><path d="M33.278,24.389a.278.278,0,0,0,.278-.278.556.556,0,0,1,1.111,0,.278.278,0,1,0,.556,0,1.111,1.111,0,1,0-2.222,0A.278.278,0,0,0,33.278,24.389Z" transform="translate(-15.842 -10.834)"/><path d="M47.278,24.389a.278.278,0,0,0,.278-.278.556.556,0,0,1,1.111,0,.278.278,0,1,0,.556,0,1.111,1.111,0,1,0-2.222,0A.278.278,0,0,0,47.278,24.389Z" transform="translate(-25.953 -10.834)"/><path d="M38.153,35.461a3.758,3.758,0,0,0,3.026,0,.278.278,0,0,0-.249-.5,2.721,2.721,0,0,1-.987.248v-.607a.833.833,0,1,0-.556,0v.606a2.723,2.723,0,0,1-.987-.248.278.278,0,1,0-.248.5Zm1.513-1.915a.278.278,0,1,1-.278.278A.278.278,0,0,1,39.666,33.546Z" transform="translate(-19.453 -18.047)"/><path d="M29.089,22.638a9.176,9.176,0,0,0-4.061-5.518,5.71,5.71,0,0,0,.939-4.2l.831-.831a2.242,2.242,0,1,0-3.171-3.171l-.114.114a5.81,5.81,0,0,0-6.6,0L16.8,8.915a2.242,2.242,0,1,0-3.171,3.171l.831.831a5.71,5.71,0,0,0,.939,4.2,9.182,9.182,0,0,0-4.061,5.518,3.3,3.3,0,0,0,.211,3.112,2.859,2.859,0,0,0,2.416.929,2.765,2.765,0,0,0,4,.782,4.989,4.989,0,0,0,4.506,0,2.765,2.765,0,0,0,4-.782,2.864,2.864,0,0,0,2.416-.929A3.3,3.3,0,0,0,29.089,22.638Zm-13.36-5.063.007,0,.186.213a6.7,6.7,0,0,0-1.05,2.244A3.047,3.047,0,0,1,14,18.922a6.289,6.289,0,0,1,1.734-1.347Zm.6.607a5.829,5.829,0,0,0,7.772,0,5.915,5.915,0,0,1,.963,2.2,9.229,9.229,0,0,1-4.849,1.227,9.229,9.229,0,0,1-4.849-1.227,5.918,5.918,0,0,1,.963-2.2Zm9.226,1.846a6.694,6.694,0,0,0-1.05-2.244c.065-.071.127-.142.187-.213l0,0a6.261,6.261,0,0,1,1.736,1.348,3.047,3.047,0,0,1-.878,1.107ZM24.021,9.307a1.686,1.686,0,0,1,2.385,2.385l-.573.573a5.915,5.915,0,0,0-1.87-2.9Zm-9.427,2.958-.573-.573a1.686,1.686,0,1,1,2.385-2.385l.057.058a5.9,5.9,0,0,0-1.869,2.9Zm5.619-3.71a5.278,5.278,0,1,1-5.278,5.278,5.278,5.278,0,0,1,5.278-5.278ZM13.7,26.126a2.223,2.223,0,0,1-1.711-.718,2.8,2.8,0,0,1-.119-2.6A10.635,10.635,0,0,1,13.6,19.381a3.967,3.967,0,0,0,1.143,1.251,8.054,8.054,0,0,0-.09,1.118,7.43,7.43,0,0,0,.1,1.18,2.8,2.8,0,0,0-1.211,2.292A2.948,2.948,0,0,0,13.7,26.126Zm.4-.9a2.222,2.222,0,1,1,2.222,2.222A2.222,2.222,0,0,1,14.1,25.222Zm4.3,1.838a2.776,2.776,0,0,0-3.121-4.412,5.909,5.909,0,0,1-.071-.9,5.567,5.567,0,0,1,.052-.781,9.968,9.968,0,0,0,4.947,1.2,9.968,9.968,0,0,0,4.947-1.2,5.32,5.32,0,0,1,.052.781,5.935,5.935,0,0,1-.071.9,2.838,2.838,0,0,0-1.04-.2,2.781,2.781,0,0,0-2.778,2.778,2.814,2.814,0,0,0,.7,1.838,4.467,4.467,0,0,1-3.616,0Zm5.7.384a2.222,2.222,0,1,1,2.222-2.222A2.222,2.222,0,0,1,24.1,27.444Zm4.338-2.036a2.223,2.223,0,0,1-1.711.718,2.936,2.936,0,0,0,.151-.9,2.8,2.8,0,0,0-1.211-2.292,7.586,7.586,0,0,0,.1-1.18,8,8,0,0,0-.089-1.108v-.01a3.967,3.967,0,0,0,1.143-1.251,10.635,10.635,0,0,1,1.738,3.425A2.8,2.8,0,0,1,28.44,25.408Z"/></g></svg>