<svg width="16" height="16" viewBox="0 0 16 16" fill="#0F172A" xmlns="http://www.w3.org/2000/svg">
<path d="M14.244 11.7582C13.7434 11.2571 13.1584 10.8482 12.516 10.5502C13.422 9.81616 14 8.69617 14 7.44018C14 5.22419 12.152 3.4062 9.93599 3.4402C7.754 3.4742 5.99601 5.25219 5.99601 7.44018C5.99601 8.69617 6.57601 9.81616 7.48 10.5502C6.83742 10.848 6.25245 11.257 5.75201 11.7582C4.66002 12.8521 4.04002 14.2961 4.00002 15.8361C3.99949 15.8575 4.00324 15.8787 4.01104 15.8986C4.01884 15.9185 4.03054 15.9366 4.04545 15.9519C4.06036 15.9671 4.07818 15.9793 4.09786 15.9876C4.11753 15.9959 4.13867 16.0001 4.16002 16.0001H5.28002C5.36602 16.0001 5.43802 15.9321 5.44002 15.8461C5.47802 14.6861 5.94801 13.6001 6.77401 12.7761C7.19668 12.3512 7.69944 12.0143 8.25318 11.785C8.80692 11.5557 9.40064 11.4385 9.99999 11.4402C11.218 11.4402 12.364 11.9142 13.226 12.7761C14.05 13.6001 14.52 14.6861 14.56 15.8461C14.562 15.9321 14.634 16.0001 14.72 16.0001H15.84C15.8613 16.0001 15.8824 15.9959 15.9021 15.9876C15.9218 15.9793 15.9396 15.9671 15.9545 15.9519C15.9694 15.9366 15.9811 15.9185 15.9889 15.8986C15.9967 15.8787 16.0005 15.8575 15.9999 15.8361C15.96 14.2961 15.34 12.8521 14.244 11.7582ZM9.99999 10.0002C9.31599 10.0002 8.672 9.73416 8.19 9.25017C7.94811 9.01018 7.75703 8.72393 7.62818 8.40849C7.49932 8.09305 7.43532 7.75489 7.44 7.41418C7.446 6.75818 7.708 6.12419 8.166 5.65419C8.646 5.16219 9.28799 4.88819 9.97399 4.88019C10.652 4.87419 11.31 5.13819 11.794 5.61219C12.29 6.09819 12.562 6.74818 12.562 7.44018C12.562 8.12417 12.296 8.76617 11.812 9.25017C11.5745 9.48876 11.2921 9.67789 10.9811 9.80663C10.6701 9.93536 10.3366 10.0011 9.99999 10.0002ZM4.99002 7.96818C4.97202 7.79418 4.96202 7.61818 4.96202 7.44018C4.96202 7.12218 4.99202 6.81218 5.04802 6.51018C5.06202 6.43818 5.02402 6.36419 4.95802 6.33419C4.68602 6.21219 4.43602 6.04419 4.22002 5.83219C3.9655 5.5854 3.76522 5.28828 3.63196 4.95976C3.49869 4.63124 3.43537 4.27856 3.44603 3.9242C3.46403 3.2822 3.72203 2.67221 4.17202 2.21221C4.66602 1.70621 5.33002 1.43022 6.03601 1.43822C6.67401 1.44422 7.29 1.69021 7.756 2.12621C7.914 2.27421 8.05 2.43821 8.164 2.61421C8.204 2.67621 8.282 2.70221 8.35 2.67821C8.702 2.55621 9.07399 2.47021 9.45599 2.43021C9.56799 2.41821 9.63199 2.29821 9.58199 2.19821C8.93199 0.912219 7.604 0.024225 6.06801 0.000225131C3.85003 -0.0337747 2.00204 1.78421 2.00204 3.9982C2.00204 5.25419 2.58003 6.37419 3.48603 7.10818C2.85003 7.40218 2.26404 7.80818 1.75604 8.31617C0.660046 9.41017 0.0400498 10.8542 5.00117e-05 12.3961C-0.000483795 12.4175 0.00326024 12.4387 0.0110616 12.4586C0.018863 12.4785 0.0305638 12.4966 0.0454745 12.5119C0.0603853 12.5272 0.0782045 12.5393 0.0978819 12.5476C0.117559 12.5559 0.138697 12.5602 0.160049 12.5601H1.28204C1.36804 12.5601 1.44004 12.4921 1.44204 12.4061C1.48004 11.2462 1.95004 10.1602 2.77603 9.33617C3.36403 8.74817 4.08402 8.34017 4.87002 8.14217C4.94802 8.12217 5.00002 8.04817 4.99002 7.96818Z" fill="inherit"/>
</svg>
