<svg width="16" height="16" viewBox="0 0 16 16" fill="#0F172A" xmlns="http://www.w3.org/2000/svg">
<g clip-path="url(#clip0_24_348)">
<path d="M3.33913 16C2.42087 16 1.63478 15.6736 0.980869 15.0208C0.326956 14.3681 0 13.5833 0 12.6667C0 11.75 0.326956 10.9653 0.980869 10.3125C1.63478 9.65972 2.42087 9.33333 3.33913 9.33333C4.25739 9.33333 5.04348 9.65972 5.69739 10.3125C6.3513 10.9653 6.67826 11.75 6.67826 12.6667C6.67826 13.5833 6.3513 14.3681 5.69739 15.0208C5.04348 15.6736 4.25739 16 3.33913 16ZM12.6609 16C11.7426 16 10.9565 15.6736 10.3026 15.0208C9.6487 14.3681 9.32174 13.5833 9.32174 12.6667C9.32174 11.75 9.6487 10.9653 10.3026 10.3125C10.9565 9.65972 11.7426 9.33333 12.6609 9.33333C13.5791 9.33333 14.3652 9.65972 15.0191 10.3125C15.673 10.9653 16 11.75 16 12.6667C16 13.5833 15.673 14.3681 15.0191 15.0208C14.3652 15.6736 13.5791 16 12.6609 16ZM3.33913 14.3333C3.79826 14.3333 4.19117 14.1703 4.51784 13.8442C4.84508 13.5175 5.0087 13.125 5.0087 12.6667C5.0087 12.2083 4.84508 11.8161 4.51784 11.49C4.19117 11.1633 3.79826 11 3.33913 11C2.88 11 2.4871 11.1633 2.16042 11.49C1.83318 11.8161 1.66957 12.2083 1.66957 12.6667C1.66957 13.125 1.83318 13.5175 2.16042 13.8442C2.4871 14.1703 2.88 14.3333 3.33913 14.3333ZM12.6609 14.3333C13.12 14.3333 13.5132 14.1703 13.8404 13.8442C14.1671 13.5175 14.3304 13.125 14.3304 12.6667C14.3304 12.2083 14.1671 11.8161 13.8404 11.49C13.5132 11.1633 13.12 11 12.6609 11C12.2017 11 11.8086 11.1633 11.4813 11.49C11.1546 11.8161 10.9913 12.2083 10.9913 12.6667C10.9913 13.125 11.1546 13.5175 11.4813 13.8442C11.8086 14.1703 12.2017 14.3333 12.6609 14.3333ZM8.34783 6.66667C7.42956 6.66667 6.64348 6.34028 5.98957 5.6875C5.33565 5.03472 5.0087 4.25 5.0087 3.33333C5.0087 2.41667 5.33565 1.63194 5.98957 0.979167C6.64348 0.326389 7.42956 0 8.34783 0C9.26609 0 10.0522 0.326389 10.7061 0.979167C11.36 1.63194 11.687 2.41667 11.687 3.33333C11.687 4.25 11.36 5.03472 10.7061 5.6875C10.0522 6.34028 9.26609 6.66667 8.34783 6.66667ZM8.34783 5C8.80696 5 9.20014 4.83667 9.52737 4.51C9.85405 4.18389 10.0174 3.79167 10.0174 3.33333C10.0174 2.875 9.85405 2.48278 9.52737 2.15667C9.20014 1.83 8.80696 1.66667 8.34783 1.66667C7.8887 1.66667 7.49579 1.83 7.16911 2.15667C6.84188 2.48278 6.67826 2.875 6.67826 3.33333C6.67826 3.79167 6.84188 4.18389 7.16911 4.51C7.49579 4.83667 7.8887 5 8.34783 5Z" fill="inherit"/>
</g>
<defs>
<clipPath id="clip0_24_348">
<rect width="16" height="16" fill="white"/>
</clipPath>
</defs>
</svg>
