<svg xmlns="http://www.w3.org/2000/svg" width="20" height="20" viewBox="0 0 20 20"><path d="M18.123,4.167a1.639,1.639,0,0,0-2.29-2.29A10,10,0,0,0,4.24,1.825a.391.391,0,1,0,.451.638A9.143,9.143,0,0,1,8.441.912a5.016,5.016,0,0,0-.469.727A12.636,12.636,0,0,0,6.834,5.161,1.644,1.644,0,0,0,5.36,6.406H1.508a9.188,9.188,0,0,1,.834-1.541.391.391,0,0,0-.648-.436,10,10,0,0,0,.183,11.4,1.639,1.639,0,0,0,2.29,2.29A10,10,0,0,0,20,10a9.9,9.9,0,0,0-1.877-5.833Zm.656,8.645H14.614a1.647,1.647,0,0,0-1.068-1.163c.031-.543.047-1.1.047-1.649,0-.966-.047-1.911-.137-2.812h5.328a9.271,9.271,0,0,1,0,5.625ZM10,19.219c-.654,0-1.363-.952-1.894-2.547a17.235,17.235,0,0,1-.684-3.078h4.006a1.647,1.647,0,0,0,.966,1.125c-.594,3.1-1.619,4.5-2.393,4.5ZM3.2,15.156a1.63,1.63,0,0,0-.728.171,9.188,9.188,0,0,1-.97-1.733H6.634a18.18,18.18,0,0,0,.731,3.325,7.306,7.306,0,0,0,1.072,2.169,9.1,9.1,0,0,1-3.763-1.563A1.64,1.64,0,0,0,3.2,15.156ZM7.187,10c0-.533.016-1.065.045-1.587A1.645,1.645,0,0,0,8.546,7.188h4.126A27.534,27.534,0,0,1,12.812,10c0,.531-.016,1.061-.045,1.582a1.645,1.645,0,0,0-1.34,1.23h-4.1A27.556,27.556,0,0,1,7.187,10Zm5.833,4.063a.859.859,0,1,1,.859-.859A.86.86,0,0,1,13.021,14.063ZM12.636,3.082A7.306,7.306,0,0,0,11.564.912a9.1,9.1,0,0,1,3.763,1.563,1.64,1.64,0,0,0,2.2,2.2,9.183,9.183,0,0,1,.97,1.733H13.366a18.183,18.183,0,0,0-.731-3.325Zm5.021.121a.859.859,0,1,1-.859-.859A.86.86,0,0,1,17.656,3.2ZM10,.781c.654,0,1.363.952,1.894,2.547a17.235,17.235,0,0,1,.684,3.078H8.546A1.647,1.647,0,0,0,7.6,5.292C8.2,2.18,9.224.781,10,.781ZM6.953,5.938a.859.859,0,1,1-.859.859A.86.86,0,0,1,6.953,5.938ZM5.36,7.188A1.647,1.647,0,0,0,6.453,8.359c-.03.54-.047,1.09-.047,1.641,0,.966.047,1.911.137,2.813H1.216a9.293,9.293,0,0,1,0-5.625ZM2.344,16.8a.859.859,0,1,1,.859.859A.86.86,0,0,1,2.344,16.8Zm9.216,2.289a5.012,5.012,0,0,0,.465-.72,12.624,12.624,0,0,0,1.141-3.529,1.644,1.644,0,0,0,1.448-1.243h3.875a9.249,9.249,0,0,1-6.929,5.492Z" transform="translate(0)"/><path d="M70.451,74.841a.391.391,0,1,0-.276-.114A.393.393,0,0,0,70.451,74.841Z" transform="translate(-67.323 -71.167)"/></svg>